<svg xmlns="http://www.w3.org/2000/svg" width="150" height="150" viewBox="0 0 150 150"><title>Grijs</title><g id="eba2fd60-bda4-451e-a94e-c1a70b548de0" data-name="Laag 2"><g id="61ea9453-ac6b-4b20-b7e9-ae6820a4177c" data-name="Laag 1"><path d="M75,0a75,75,0,1,0,75,75A75,75,0,0,0,75,0ZM98.49,46a8,8,0,1,1-8,8A8,8,0,0,1,98.49,46ZM52,46a8,8,0,1,1-8,8A8,8,0,0,1,52,46Zm23.47,66C55.8,112,39.67,98.44,38.1,81.18a2.57,2.57,0,0,1,2.58-2.78h69.58a2.59,2.59,0,0,1,2.59,2.78C111.27,98.44,95.14,112,75.47,112Z" fill="#bfccd6"/></g></g></svg>