<?xml version="1.0" encoding="UTF-8"?>
<svg width="60px" height="52px" viewBox="0 0 60 52" version="1.1" xmlns="http://www.w3.org/2000/svg" xmlns:xlink="http://www.w3.org/1999/xlink">
    <!-- Generator: Sketch 46 (44423) - http://www.bohemiancoding.com/sketch -->
    <title>photo-camera</title>
    <desc>Created with Sketch.</desc>
    <defs></defs>
    <g id="4-/-Actie-aanmaken" stroke="none" stroke-width="1" fill="none" fill-rule="evenodd">
        <g id="Actie-aanmaken:-4---Foto-en-video" transform="translate(-726.000000, -356.000000)" fill-rule="nonzero" fill="#40BAF2">
            <g id="Group" transform="translate(546.000000, 134.000000)">
                <g id="Group-3" transform="translate(89.000000, 189.000000)">
                    <g id="photo-camera" transform="translate(91.000000, 33.000000)">
                        <path d="M57.3680875,10.3511084 C55.8132158,8.79656351 53.9377207,8.01907323 51.7402951,8.01907323 L44.775337,8.01907323 L43.1898624,3.79063264 C42.7958352,2.77507069 42.0758481,1.89912808 41.0284852,1.16291373 C39.9815579,0.427026105 38.9089284,0.0588100221 37.8101612,0.0588100221 L21.8899615,0.0588100221 C20.7913031,0.0588100221 19.7184559,0.427026105 18.6715286,1.16291373 C17.6246013,1.89912808 16.9045052,2.77507069 16.510587,3.79063264 L14.9248945,8.01907323 L7.95993649,8.01907323 C5.76229309,8.01907323 3.88668901,8.79656351 2.33181738,10.3511084 C0.777272458,11.9057622 0,13.7815841 0,15.9790097 L0,43.8389508 C0,46.0364853 0.777272458,47.912525 2.33181738,49.4667432 C3.88668901,51.0216148 5.762402,51.7991051 7.95993649,51.7991051 L51.7395327,51.7991051 C53.9369583,51.7991051 55.8123446,51.0216148 57.3673251,49.4667432 C58.9217611,47.912525 59.6992514,46.0364853 59.6992514,43.8389508 L59.6992514,15.9790097 C59.699687,13.7815841 58.9221967,11.9057622 57.3680875,10.3511084 Z M39.6908839,39.7504563 C36.9650394,42.4764097 33.6849648,43.8397131 29.8497891,43.8397131 C26.0146133,43.8397131 22.7347566,42.4764097 20.0086942,39.7504563 C17.2826319,37.0249385 15.919873,33.7441016 15.919873,29.9097971 C15.919873,26.0742945 17.2830675,22.7945467 20.0086942,20.0684844 C22.7344298,17.3424221 26.0147222,15.9796632 29.8497891,15.9796632 C33.6848559,15.9796632 36.9650394,17.3427488 39.6908839,20.0684844 C42.4168373,22.79422 43.779814,26.0742945 43.779814,29.9097971 C43.779814,33.7441016 42.4169462,37.0246117 39.6908839,39.7504563 Z" id="Shape"></path>
                        <path d="M29.8497891,20.9541198 C27.3829264,20.9541198 25.2737159,21.8299535 23.5220485,23.5818387 C21.7703811,25.3335061 20.8945474,27.4423899 20.8945474,29.9097971 C20.8945474,32.376224 21.7703811,34.4854346 23.5220485,36.237102 C25.2737159,37.9884427 27.3828175,38.8642764 29.8497891,38.8642764 C32.3163249,38.8642764 34.4257533,37.9884427 36.1774207,36.237102 C37.9290881,34.4854346 38.8050307,32.3763329 38.8050307,29.9097971 C38.8050307,27.4424988 37.9290881,25.333615 36.1774207,23.5818387 C34.4258622,21.8300624 32.3163249,20.9541198 29.8497891,20.9541198 Z" id="Shape"></path>
                    </g>
                </g>
            </g>
        </g>
    </g>
</svg>