<svg version="1" xmlns="http://www.w3.org/2000/svg" width="1146.667" height="1146.667" viewBox="0 0 860.000000 860.000000"><path d="M608.5 1.6c-15.8 2.8-29.3 10-41 21.9-7.4 7.6-8.7 9.1-13.4 16.8-6.2 10.2-10.3 22.1-12.7 37.2-1.1 6.4-.7 24.6.6 31.1 7.2 36.8 32.2 64 65 70.8 4.4 1 12.8 1.3 26.5 1.2 18.6-.2 20.6-.4 28.5-2.9 28.3-8.9 49.3-32.4 57.1-63.7 1.8-7.1 2.4-13.8 2.3-25.5-.3-24.1-8.8-46-24.7-63.1-11.9-12.8-27.4-21.4-43.2-24-7.1-1.2-37.7-1-45 .2zM408.5 123.8c-6.6.6-22.9 4.3-30.2 6.7-40.7 13.6-74.3 47.6-87.1 88.1-3.1 9.7-3.5 11.3-4.7 19.8-1.5 10.1-1.4 6.2-1.4 52v21l-73 73c-72 72.2-76.2 76.7-77.6 84.2-.2 1.6-.7 4-1 5.4-.6 3-.7 22.4-.1 26 .3 1.4.7 5.6 1.1 9.3.3 3.7.8 7.6 1 8.5.4 2.2 1.4 8.6 2.1 13.7.3 2.2.9 5.8 1.4 8 .5 2.2 1.1 5.5 1.5 7.3 1.1 6.6 6.6 31.1 9 40.2l2 8c.6 2.8 6.4 24.5 10 37 2 6.9 4.2 14.7 5 17.5.7 2.7 4.3 14.7 8 26.5 11.3 36.7 12.1 38.4 19.5 41.8 3 1.3 9.8 1.6 46.5 1.8 23.7.1 43.5.3 44 .3.7.1.9 16.9.8 48.9-.1 27.3.2 50.8.8 53.5 2.3 12.1 13.4 26.2 24.9 31.9 11.9 5.9 3.4 5.7 174.5 5.4 119.8-.2 158.2-.5 162-1.4 37.7-9.3 66.5-41.7 78-87.7 1.6-6.5 1.7-20.5 1.7-212.5 0-230.1.7-207.2-7.4-223.5-7.6-15.2-19.9-29.6-33.4-39-3.8-2.7-9.1-6.5-11.9-8.5-2.7-2.1-27-19.6-54-39-26.9-19.4-50.9-36.7-53.2-38.4-2.4-1.7-6.7-4.8-9.5-6.9-2.9-2.1-10.1-7.2-15.9-11.5-5.8-4.2-11.3-8.2-12.2-8.7-1.3-.8-21.2-15.2-41.1-29.7-9.4-6.9-11.3-8.3-19.9-14.1-11.9-8-22.6-12.2-36.2-14.3-4.5-.7-19.4-1.1-24-.6zm35.3 81.3c9.2 6.6 17.8 12.9 19.2 13.9 1.4 1 8.4 6.1 15.5 11.2 7.2 5.2 18.9 13.6 26 18.8 20.6 14.8 73.5 53 79 56.9 2.8 2 5.5 3.9 6 4.4.6.4 13.7 10 29.3 21.2 15.5 11.2 29.4 21.7 30.8 23.2 1.4 1.5 3.8 5.4 5.3 8.5l2.8 5.7v394.2l-2.4 9.1c-4.5 17-10.3 26.7-18 30.3-3.5 1.7-12.3 1.8-149.1 1.9-80 .1-145.8-.2-146.4-.5-1-.7-1.1-3.8-.2-330.4.5-206.9.6-214 2.4-220.5.7-2.5 1.4-5.4 1.6-6.5.9-4.8 9.6-20.5 14.7-26.6 8.9-10.7 22.5-20.1 35.2-24.3 7.7-2.5 22.3-4.4 27.3-3.4 3.2.6 8.5 3.8 21 12.9zM283.7 530.9v131.8l-26.9.1-26.8.1-.6-2.7c-.3-1.5-1.2-5-2-7.7-1.7-6.1-10.4-46-10.9-49.7-.3-2.3-1-6.2-2.9-16.3-.2-1.1-.7-4.3-1.1-7-.5-2.8-.9-5.2-1-5.5 0-.3-.5-3.2-.9-6.5-.4-3.2-1-6.8-1.2-8-.2-1.1-.7-4.3-.9-7-.3-2.8-.8-6.1-1-7.5-.2-1.4-.7-5.4-1-9-.3-3.6-.7-8.3-1-10.5-1.2-9.4-2-19.1-2.9-36.5l-.5-7.5 22-22.5c21.9-22.3 59.2-60 59.4-60 .1 0 .2 59.3.2 131.9z"/></svg>